<?xml version="1.0" standalone="no"?>
<!DOCTYPE svg PUBLIC "-//W3C//DTD SVG 20010904//EN"
 "http://www.w3.org/TR/2001/REC-SVG-20010904/DTD/svg10.dtd">
<svg version="1.0" xmlns="http://www.w3.org/2000/svg"
 width="391.000000pt" height="391.000000pt" viewBox="0 0 391.000000 391.000000"
 preserveAspectRatio="xMidYMid meet">
<metadata>
Created by potrace 1.11, written by Peter Selinger 2001-2013
</metadata>
<g transform="translate(0.000000,391.000000) scale(0.100000,-0.100000)"
fill="#000000" stroke="none">
<path d="M3738 3902 c-3 -7 -360 -138 -443 -163 -85 -25 -331 -114 -336 -121
-3 -5 14 -30 37 -56 24 -26 44 -50 44 -53 0 -3 -33 -35 -72 -70 -40 -35 -138
-125 -218 -199 -80 -74 -194 -180 -255 -235 -60 -55 -139 -127 -175 -161 -80
-76 -171 -159 -175 -159 -1 0 -31 43 -68 96 l-65 96 71 65 c40 35 89 79 110
98 l38 33 49 -48 c27 -27 51 -47 53 -44 7 7 134 290 157 349 12 29 60 141 107
247 47 106 84 196 81 198 -7 7 -227 -66 -540 -179 -146 -53 -271 -96 -277 -96
-22 0 -9 -26 34 -70 l44 -45 -101 -95 c-107 -101 -149 -129 -212 -141 -34 -6
-42 -4 -62 20 -13 14 -23 31 -23 36 0 6 18 23 40 38 28 19 48 45 66 85 15 31
35 63 45 70 10 8 18 25 18 42 0 23 -5 31 -25 36 -14 3 -23 10 -20 14 2 4 -6
29 -19 55 -28 55 -23 73 32 102 36 19 59 60 44 75 -6 6 -12 6 -16 -1 -4 -6
-14 -11 -22 -11 -8 0 -12 5 -9 10 9 14 -38 13 -53 -2 -17 -17 -27 -1 -11 18
13 16 11 17 -16 10 -16 -4 -81 -10 -144 -12 l-115 -5 -38 -37 c-24 -23 -37
-43 -34 -55 2 -10 -4 -21 -15 -27 -24 -13 -24 -46 0 -92 18 -36 18 -38 0 -54
-33 -30 -16 -72 36 -88 12 -3 28 -25 39 -51 10 -25 36 -60 57 -79 46 -39 50
-70 18 -123 -15 -24 -26 -32 -39 -28 -10 3 -46 -11 -87 -35 -75 -43 -379 -140
-439 -140 -21 0 -34 -5 -34 -12 0 -13 -53 -48 -71 -48 -5 0 -9 9 -9 20 0 29
-47 100 -66 100 -28 0 -219 -53 -231 -64 -11 -10 -93 -325 -93 -357 0 -13 -34
-23 -152 -48 -84 -18 -159 -34 -165 -36 -9 -3 -13 -25 -13 -62 0 -52 3 -60 37
-95 l37 -38 -37 -38 -37 -38 0 -1102 0 -1102 1672 0 1672 0 48 47 47 46 26
-31 c15 -18 32 -32 38 -32 7 0 27 37 46 83 18 45 69 163 112 261 43 99 77 182
74 184 -2 2 -98 -27 -212 -66 l-208 -70 50 42 c27 22 94 85 150 138 l100 97
111 -117 c62 -64 115 -114 119 -110 10 9 51 1048 43 1070 -6 14 -42 17 -275
22 -147 4 -295 9 -328 13 l-60 6 105 98 c58 54 107 99 110 99 3 0 47 -48 99
-106 52 -57 99 -103 105 -101 13 4 265 1144 266 1200 0 37 -1 38 -32 32 -83
-14 -471 -66 -473 -63 -2 2 8 52 21 112 14 60 22 111 19 114 -10 10 -245 -26
-415 -63 -19 -5 -10 7 40 52 36 32 110 100 165 151 l100 94 49 -52 c27 -28 52
-48 56 -43 8 9 102 222 194 438 30 72 77 179 105 238 28 59 51 112 51 117 0
12 -47 13 -52 2z m-2404 -983 c46 -21 39 -54 -23 -113 -221 -208 -341 -313
-341 -299 0 4 11 44 25 87 14 44 23 81 22 82 -3 3 -205 -31 -264 -44 -39 -9
-43 -8 -43 9 0 10 9 23 20 29 11 6 20 19 20 30 0 22 62 74 71 59 11 -19 110 2
133 27 12 14 64 39 121 60 117 42 229 82 232 83 1 1 13 -4 27 -10z m672 -297
l20 -43 -70 -68 c-39 -37 -95 -90 -125 -118 l-54 -51 -41 80 -41 79 72 70 c82
78 120 99 178 96 37 -2 42 -6 61 -45z m-439 -422 c-39 -36 -95 -85 -126 -109
-31 -24 -56 -51 -57 -60 -2 -39 -18 -71 -41 -86 -13 -9 -41 -32 -62 -50 l-37
-34 -55 15 c-30 8 -95 17 -145 21 l-91 6 275 252 276 253 67 -72 67 -71 -71
-65z m-759 -700 l33 -15 -142 -130 c-79 -71 -165 -151 -193 -176 l-51 -46 -72
5 c-81 5 -153 -13 -293 -73 -44 -19 -78 -30 -75 -25 3 5 72 69 153 142 81 73
188 172 238 219 60 57 106 92 135 102 55 20 218 18 267 -3z m2176 -189 c-82
-73 -164 -149 -294 -271 -74 -70 -172 -160 -217 -201 -45 -41 -127 -116 -183
-168 -89 -83 -100 -90 -100 -68 0 20 52 73 258 263 141 131 282 261 312 290
191 179 233 214 248 202 12 -10 8 -18 -24 -47z m201 -1067 c-151 -138 -173
-155 -177 -137 -2 12 32 52 102 120 94 91 107 100 120 86 13 -13 8 -21 -45
-69z"/>
</g>
</svg>
